# xmcd
# 
# Track frame offsets:
#     150
#     17105
#     35785
#     52970
#     71490
#     89190
#     106030
#     122080
#     137155
#     157500
#     176360
#     198135
#     214180
#     245745
# 
# Disc length: 3714
# 
# Revision: 1
# Processed by: cddbd v1.5.2PL0 Copyright (c) Steve Scherf et al.
# Submitted via: BonkEnc v1.0.8
# 
DISCID=be0e800e
DTITLE=Mario - Turning Point
DYEAR=2005
DGENRE=R&B
TTITLE0=18 Featuring Cassidy
TTITLE1=Let Me Love You
TTITLE2=Couldn't Say No
TTITLE3=Boom
TTITLE4=How Could You
TTITLE5=Girl I Need
TTITLE6=Call the Cops
TTITLE7=Here I Go Again
TTITLE8=Nikes Fresh Out the Box
TTITLE9=Directions
TTITLE10=Like Me Real Hard
TTITLE11=Shakedown
TTITLE12=Let Me Love You [Remix]
TTITLE13=Video
EXTD=YEAR: 2005
EXTT0=
EXTT1=
EXTT2=
EXTT3=
EXTT4=
EXTT5=
EXTT6=
EXTT7=
EXTT8=
EXTT9=
EXTT10=
EXTT11=
EXTT12=
EXTT13=
PLAYORDER=
